<svg class="icon" viewBox="0 0 1024 1024" xmlns="http://www.w3.org/2000/svg" width="32" height="32"><defs><style/></defs><path d="M771.717 123.639v777.936c0 24.151 19.54 43.69 43.69 43.69s43.691-19.539 43.691-43.69V123.64c0-24.152-19.54-43.691-43.69-43.691s-43.691 19.54-43.691 43.69zm-34.589 423.435c8.496-8.496 12.743-19.66 12.743-30.948 0-1.335-.121-2.791-.242-4.126.121-1.335.242-2.791.242-4.126 0-11.166-4.247-22.331-12.743-30.948L581.541 321.34c-17.112-17.112-44.783-17.112-61.774 0-17.112 17.112-17.112 44.783 0 61.774l84.954 85.196H156.407c-24.152 0-43.691 19.54-43.691 43.691s19.54 43.69 43.69 43.69h448.437l-85.197 85.197c-17.112 17.113-17.112 44.783 0 61.774 17.112 17.112 44.783 17.112 61.774 0l155.708-155.587z"/></svg>