<svg class="icon" viewBox="0 0 1024 1024" xmlns="http://www.w3.org/2000/svg" width="512" height="512"><path d="M735.48 881.936H291.888c-54.448 0-98.584-44.144-98.584-98.576V241.168c0-54.448 44.136-98.584 98.584-98.584H608.88c8.536-1.608 17.6.4 24.192 7l192.264 192.288c4.28 4.264 6.768 9.608 7.576 15.16.752 2.32 1.112 4.808 1.112 7.368v418.96c.024 54.424-44.072 98.552-98.496 98.576h-.048zm-98.592-651.6v109.416h109.424L636.888 230.336zM784.784 389.04h-172.52a24.664 24.664 0 01-24.656-24.648v-172.52h-295.72A49.288 49.288 0 00242.6 241.16v542.2c0 27.2 22.056 49.264 49.272 49.264h443.584a49.296 49.296 0 0049.304-49.264V389.04h.024z"/></svg>
