<svg class="icon" viewBox="0 0 1024 1024" xmlns="http://www.w3.org/2000/svg" width="32" height="32"><defs><style/></defs><path d="M855.856 556.1c2.138-19.181 3.207-33.919 3.207-44.1 0-15.3-1.407-29.7-3.207-44.1l106.032-90.225-99.9-179.775-138.938 46.35a340.425 340.425 0 00-78.187-44.1L619.156 62h-208.8l-31.05 138.15c-28.181 11.25-54.112 26.55-78.187 44.1L164.15 197.9 62.169 377.675 168.313 467.9c-1.857 14.4-3.263 29.25-3.263 44.1s1.406 29.7 3.263 44.1l-95.288 83.419L174.5 823.85l126.563-44.1c24.075 18 50.006 32.85 78.187 44.1L408.894 962h210.262l25.707-138.15c28.237-11.25 54.112-26.55 78.187-44.1l127.631 44.1L960.65 639.519 855.856 556.1zm-91.631-76.95c1.856 13.95 2.306 23.4 2.306 32.85 0 9.45-.9 19.35-2.25 32.85l-6.525 50.85 41.175 31.5 49.95 37.8-32.4 54.45-58.725-22.95-48.093-18.9-41.625 30.6a272.813 272.813 0 01-57.882 32.85l-48.993 19.35-7.425 50.85-9.225 60.75h-64.8l-8.776-60.75-7.425-50.85-49.05-19.35a264.375 264.375 0 01-56.868-31.95l-42.131-31.5-48.994 19.35-58.781 22.95-32.4-54.45 50.006-37.8 41.175-31.5L260 545.3a352.238 352.238 0 01-2.363-33.3c0-9 .957-19.35 2.363-32.85l6.469-50.85-41.175-31.5-50.007-37.8 32.4-54.45 58.782 22.95 48.094 18.9 41.625-30.6a272.813 272.813 0 0157.825-32.85l49.05-19.35 7.425-50.85 9.225-60.75h64.35l8.83 60.75 7.37 50.85 49.05 19.35a264.375 264.375 0 0156.924 31.95l42.075 31.5 49.05-19.35 58.725-22.95 32.4 54.45-49.5 38.25-41.175 31.5 6.47 50.85zM512 343.25a168.75 168.75 0 100 337.5 168.75 168.75 0 100-337.5zm0 253.125c-46.406 0-84.375-37.969-84.375-84.375s37.969-84.375 84.375-84.375 84.375 37.969 84.375 84.375-37.969 84.375-84.375 84.375z"/></svg>
