<?xml version="1.0" standalone="no"?><!DOCTYPE svg PUBLIC "-//W3C//DTD SVG 1.1//EN" "http://www.w3.org/Graphics/SVG/1.1/DTD/svg11.dtd"><svg t="1691373807349" class="icon" viewBox="0 0 1024 1024" version="1.1" xmlns="http://www.w3.org/2000/svg" p-id="3494" xmlns:xlink="http://www.w3.org/1999/xlink" width="200" height="200"><path d="M590.701714 85.74781L843.093333 112.956952a73.142857 73.142857 0 0 1 64.877715 64.877715l27.209142 252.391619a73.142857 73.142857 0 0 1-21.01638 59.538285L489.764571 914.16381a73.142857 73.142857 0 0 1-103.424 0L106.76419 634.587429a73.142857 73.142857 0 0 1 0-103.424L531.163429 106.76419a73.142857 73.142857 0 0 1 59.538285-21.01638zM582.875429 158.47619L158.47619 582.875429l279.576381 279.576381 424.399239-424.399239-27.209143-252.367238L582.875429 158.47619z m68.486095 90.258286a109.714286 109.714286 0 1 1 0 219.428572 109.714286 109.714286 0 0 1 0-219.428572z m0 73.142857a36.571429 36.571429 0 1 0 0 73.142857 36.571429 36.571429 0 0 0 0-73.142857z" p-id="3495"></path></svg>