<svg class="icon" viewBox="0 0 1024 1024" xmlns="http://www.w3.org/2000/svg" width="32" height="32"><path d="M149.333 789.333A21.333 21.333 0 00128 810.667V832a21.333 21.333 0 0021.333 21.333h725.334A21.333 21.333 0 00896 832v-21.333a21.333 21.333 0 00-21.333-21.334H149.333zM448 586.667A21.333 21.333 0 00426.667 608v21.333A21.333 21.333 0 00448 650.667h426.667A21.333 21.333 0 00896 629.333V608a21.333 21.333 0 00-21.333-21.333H448zM138.987 385.92a8.853 8.853 0 00-14.4 6.912v246.187c0 7.424 8.597 11.52 14.4 6.912l156.309-123.094a8.747 8.747 0 000-13.802zM448 373.333a21.333 21.333 0 00-21.333 21.334V416A21.333 21.333 0 00448 437.333h426.667A21.333 21.333 0 00896 416v-21.333a21.333 21.333 0 00-21.333-21.334H448zM149.333 170.667A21.333 21.333 0 00128 192v21.333a21.333 21.333 0 0021.333 21.334h725.334A21.333 21.333 0 00896 213.333V192a21.333 21.333 0 00-21.333-21.333H149.333z"/></svg>
