<svg class="icon" viewBox="0 0 1024 1024" xmlns="http://www.w3.org/2000/svg" width="64" height="64"><defs><style/></defs><path d="M511.466 269.569c169.452 0 315.308 99.39 383.565 242.84h66.514c-72.09-177.91-246.293-303.527-450.08-303.527-203.754 0-377.957 125.617-450.046 303.526h66.515c68.255-143.449 214.111-242.84 383.532-242.84z"/><path d="M511.466 755.248c-169.42 0-315.277-99.39-383.532-242.84H61.419C133.507 690.35 307.71 815.966 511.466 815.966c203.786 0 377.99-125.617 450.079-303.558H895.03c-68.257 143.45-214.112 242.84-383.565 242.84z"/><path d="M349.594 512.424c0 89.412 72.474 161.886 161.885 161.886 89.414 0 161.886-72.474 161.886-161.886 0-89.414-72.472-161.886-161.886-161.886-89.412 0-161.885 72.472-161.885 161.886zm263.084 0c0 55.88-45.32 101.197-101.199 101.197s-101.166-45.318-101.166-101.197c0-55.88 45.287-101.2 101.166-101.2s101.199 45.32 101.199 101.2z"/></svg>