<svg class="icon" viewBox="0 0 1024 1024" xmlns="http://www.w3.org/2000/svg" width="64" height="64"><defs><style/></defs><path d="M512 64q190.016 4.992 316.512 131.488T960 512q-4.992 190.016-131.488 316.512T512 960q-190.016-4.992-316.512-131.488T64 512q4.992-190.016 131.488-316.512T512 64zm67.008 275.008q26.016 0 43.008-15.488t16.992-41.504-16.992-41.504-42.496-15.488-42.496 15.488-16.992 41.504 16.992 41.504 42.016 15.488zm12 360q0-6.016.992-16T592 664l-52.992 60.992q-8 8.992-16.512 14.016T508 742.016q-8.992-4-8-14.016l88-276.992q4.992-28-8.992-48t-44.992-24q-35.008.992-76.512 29.504t-72.512 72.512v15.008q-.992 10.016 0 19.008l52.992-60.992q8-8.992 16.512-14.016T468 437.024q10.016 4.992 7.008 16l-87.008 276q-7.008 24.992 7.008 44.512T444 800.032q50.016-.992 84-28.992t63.008-72z"/></svg>