<svg class="icon" viewBox="0 0 1024 1024" xmlns="http://www.w3.org/2000/svg" width="96" height="96"><path d="M848.806 805.572c70.998-81.26 109.78-184.217 109.78-293.144 0-119.205-46.422-231.278-130.714-315.57C744.877 113.863 634.941 67.617 517.79 66.214c-1.925-.6-10.29-.592-12.228.015-116.682 1.717-226.127 47.931-308.826 130.63C113.863 279.732 67.63 389.46 66.095 506.417c-.428 1.65-.437 8.602-.021 10.227 1.083 117.628 47.365 228.058 130.66 311.354 84.292 84.292 196.364 130.713 315.57 130.713 119.205 0 231.277-46.421 315.57-130.713 6.139-6.14 12.054-12.444 17.788-18.872a20.532 20.532 0 001.472-1.44 20.566 20.566 0 001.672-2.113zM107.447 532.043H294.95c1.322 65.68 9.253 127.265 22.505 182.113-61.69 16.687-100.82 38.372-121.076 51.906-52.068-64.726-84.702-145.705-88.93-234.019zm88.434-272.635c20.09 13.557 59.243 35.462 121.34 52.26-12.997 54.128-20.826 114.778-22.243 179.433H107.526c4.55-87.37 36.912-167.489 88.355-231.693zm721.2 231.692H729.63c-1.416-64.631-9.24-125.26-22.23-179.374 61.955-16.694 101.236-38.445 121.567-52.021 51.305 64.155 83.571 144.161 88.116 231.395zm-228.403 0h-156.51V335.061c52.208-1.095 97.103-6.454 135.272-14.033C680 373.164 687.286 430.897 688.678 491.1zm-156.51-196.984V109.918c36.84 10.4 72.779 49.206 100.926 110.016 8.81 19.036 16.645 39.642 23.464 61.521-35.026 6.772-76.296 11.608-124.39 12.66zm-40.944-183.842v183.805c-47.505-1.127-88.379-6.002-123.12-12.803 6.807-21.813 14.623-42.36 23.409-61.344 27.839-60.14 63.296-98.756 99.71-109.658zm0 224.767V491.1H335.929c1.392-60.213 8.68-117.955 21.244-170.1 37.835 7.537 82.314 12.887 134.05 14.04zm-155.33 197.002h155.33v158.668c-51.61 1.194-96.02 6.564-133.822 14.103-12.825-52.886-20.208-111.57-21.509-172.77zm155.33 199.63v182.909c-36.416-10.902-71.872-49.519-99.71-109.66-8.68-18.752-16.41-39.034-23.158-60.55 34.64-6.727 75.417-11.552 122.868-12.7zm40.943 183.264V731.609c47.904 1.025 89.104 5.862 124.117 12.656-6.756 21.556-14.497 41.874-23.19 60.656-28.147 60.81-64.086 99.617-100.927 110.016zm0-224.277V532.043h156.547c-1.299 61.097-8.66 119.685-21.446 172.503-38.114-7.532-82.949-12.835-135.1-13.886zM729.66 532.043h187.502c-4.221 88.139-36.733 168.974-88.62 233.636-20.47-13.669-59.636-35.3-121.304-51.869 13.2-54.76 21.102-116.225 22.422-181.767zm71.86-303.3c-18.33 11.57-52.31 29.355-104.858 43.493-19.296-63.056-46.11-115.004-78.062-150.976 70.401 19.15 133.234 56.837 182.92 107.483zM406.008 121.26c-31.906 35.92-58.69 87.769-77.979 150.702-52.404-14.241-86.37-32.099-104.582-43.588 49.63-50.46 112.33-88.01 182.561-107.114zm-182.09 675.703c18.284-11.536 52.098-29.23 104.332-43.336 19.272 62.605 45.976 114.187 77.758 149.969C336 884.55 273.472 847.182 223.918 796.963zm394.68 106.633c31.802-35.804 58.519-87.426 77.794-150.082 51.985 14.023 85.972 31.631 104.533 43.208-49.592 50.34-112.206 87.8-182.326 106.874z"/></svg>
