<svg xmlns="http://www.w3.org/2000/svg" viewBox="0 0 32 32"><path d="M12.2 14.5h13.3v1.7H12.2v-1.7zM12.2 10.3h13.3V12H12.2v-1.7zM12.2 18.8h13.3v1.7H12.2v-1.7zM7.5 18.8h3.2v1.7H7.5v-1.7z"/><path d="M28.9 1.4H4.1c-.9 0-1.6.7-1.6 1.6v24.9c0 .9.7 1.6 1.6 1.6H29c.9 0 1.6-.7 1.6-1.6V3c-.1-.9-.8-1.6-1.7-1.6zm0 1.6v24.8H4.1V3h24.8z"/><path d="M7.5 14.5h3.2v1.7H7.5v-1.7zM7.5 10.3h3.2V12H7.5v-1.7zM12.2 6h13.3v1.7H12.2V6zM7.5 6h3.2v1.7H7.5V6zM12.2 22.9h13.3v1.7H12.2v-1.7zM7.5 22.9h3.2v1.7H7.5v-1.7z"/></svg>