<?xml version="1.0" standalone="no"?><!DOCTYPE svg PUBLIC "-//W3C//DTD SVG 1.1//EN" "http://www.w3.org/Graphics/SVG/1.1/DTD/svg11.dtd"><svg t="1638667702160" class="icon" viewBox="0 0 1024 1024" version="1.1" xmlns="http://www.w3.org/2000/svg" p-id="7154" xmlns:xlink="http://www.w3.org/1999/xlink" width="32" height="32"><defs><style type="text/css"></style></defs><path d="M288.99555555 694.04444445h68.26666667c5.00622222 0 9.10222222-4.096 9.10222223-9.10222223V339.05777778c0-5.00622222-4.096-9.10222222-9.10222223-9.10222223h-68.26666667c-5.00622222 0-9.10222222 4.096-9.10222222 9.10222223v345.88444444c0 5.00622222 4.096 9.10222222 9.10222222 9.10222223z m223.00444445-56.8888889c25.14488889 0 45.51111111-20.36622222 45.51111111-44.37333333 0-26.28266667-20.36622222-46.64888889-45.51111111-46.64888889s-45.51111111 20.36622222-45.51111111 46.64888889c0 24.00711111 20.36622222 44.37333333 45.51111111 44.37333333z m0-159.28888888c25.14488889 0 45.51111111-20.36622222 45.51111111-44.37333334 0-26.28266667-20.36622222-46.64888889-45.51111111-46.64888888s-45.51111111 20.36622222-45.51111111 46.64888888c0 24.00711111 20.36622222 44.37333333 45.51111111 44.37333334z" p-id="7155"></path><path d="M930.70222222 56.88888889H93.29777778c-20.13866667 0-36.40888889 16.27022222-36.40888889 36.40888889v837.40444444c0 20.13866667 16.27022222 36.40888889 36.40888889 36.40888889h837.40444444c20.13866667 0 36.40888889-16.27022222 36.40888889-36.40888889V93.29777778c0-20.13866667-16.27022222-36.40888889-36.40888889-36.40888889z m-45.51111111 828.30222222H138.80888889V138.80888889h746.38222222v746.38222222z" p-id="7156"></path><path d="M666.73777778 694.04444445h68.26666667c5.00622222 0 9.10222222-4.096 9.10222222-9.10222223V339.05777778c0-5.00622222-4.096-9.10222222-9.10222222-9.10222223h-68.26666667c-5.00622222 0-9.10222222 4.096-9.10222223 9.10222223v345.88444444c0 5.00622222 4.096 9.10222222 9.10222223 9.10222223z" p-id="7157"></path></svg>
