<?xml version="1.0" standalone="no"?><svg xmlns="http://www.w3.org/2000/svg" xmlns:xlink="http://www.w3.org/1999/xlink" viewBox="-125 217 360 361.1"><style>.st0{fill:#0059cf}.st1{fill:#006de7}.st2{fill:#0081ff}.st3{fill:#518bbb}.st4{fill:#73aadd}.st5{fill:#95cbff}</style><path d="m55 318.8-64.8 64.8 13.5 13.5L55 345.8zM55 509.8v27l127.3-127.3.1-27.2z" class="st0"/><path d="M55 318.8v27l51.5 51.3 13.5-13.5zM55 509.8-72.4 382.5v27L55 536.8z" class="st1"/><path d="M55 255.2-72.4 382.6 54.8 510l127.3-127.4L55 255.2zm0 191.2-63.7-63.8L55 318.8l63.7 63.8L55 446.4z" class="st2"/><path d="M-125 498.8v27l51.5 51.3 13.5-13.5zM121.1 576l-13.5-13.5V576zM107.6 216v13.5L235 356.8v-27L121.1 216z" class="st3"/><path d="m2.3 576 .1-13.7-13.6 13.7zM235 498.8l-64.8 64.8 13.5 13.5 51.3-51.3zM-11.2 216-125 329.8v27L2.3 229.5V216z" class="st4"/><path d="M-75 576h63.8l13.5-13.5L-125 435.2V499l63.5 63.5zM184.8 576l-13.5-13.5 63.7-63.7v.2-63.8L107.6 562.5l13.5 13.5zM235 266v.2L184.8 216h-63.7L235 329.8zM-125 329.8-11.2 216H-75l-50 50z" class="st5"/></svg>
